<svg xmlns="http://www.w3.org/2000/svg" width="64" height="88" viewBox="0 0 64 88">
  <ellipse cx="37" cy="85" rx="20" ry="6.5" fill="#000000" opacity="0.35"/>
  <path d="M 32 34 C 16 34 12 50 13 66 C 13.5 76 21 80 32 80 C 43 80 50.5 76 51 66 C 52 50 48 34 32 34 Z"
        fill="#3d5a78" stroke="#10141a" stroke-width="2"/>
  <path d="M 32 34 C 22 34 17 46 17 60 C 17 68 17 74 20 77 C 18 70 19 54 24 44 C 27 38 30 35 32 34 Z"
        fill="#2c4560" opacity="0.8"/>
  <path d="M 22 62 L 42 62" stroke="#2a2015" stroke-width="3" stroke-linecap="round" opacity="0.7"/>
  <circle cx="32" cy="20" r="15" fill="#3d5a78" stroke="#10141a" stroke-width="2"/>
  <path d="M 32 8 C 24 9 19 16 19 23 C 19 28 22 31 26 32 C 22 27 22 15 32 8 Z" fill="#2c4560" opacity="0.7"/>
  <ellipse cx="32" cy="22" rx="7.5" ry="8.5" fill="#0b0e11"/>
  <circle cx="32" cy="33" r="2.6" fill="#8a7a4a" stroke="#10141a" stroke-width="1"/>
  <path d="M 44 58 L 47 72" stroke="#5c5044" stroke-width="3" stroke-linecap="round"/>
  <rect x="43.5" y="70" width="6" height="10" rx="1.5" fill="#3a342c" stroke="#10141a" stroke-width="1.3"/>
</svg>
