<svg xmlns="http://www.w3.org/2000/svg" width="276" height="158" viewBox="0 0 276 158">
  <defs>
    <clipPath id="plot2x2">
      <polygon points="138,10 266,74 138,138 10,74"/>
    </clipPath>
  </defs>
  <ellipse cx="138" cy="74" rx="124" ry="56" fill="#000000" opacity="0.18"/>
  <polygon points="138,10 266,74 138,138 10,74" fill="#4a3620" stroke="#171009" stroke-width="2.5"/>
  <g clip-path="url(#plot2x2)" stroke="#5c4527" stroke-width="3.5" opacity="0.8">
    <line x1="0" y1="20" x2="128" y2="84"/>
    <line x1="20" y1="8" x2="148" y2="72"/>
    <line x1="40" y1="-4" x2="168" y2="60"/>
    <line x1="90" y1="-20" x2="218" y2="44"/>
    <line x1="110" y1="-32" x2="238" y2="32"/>
    <line x1="10" y1="45" x2="138" y2="109"/>
    <line x1="55" y1="22" x2="183" y2="86"/>
    <line x1="100" y1="0" x2="228" y2="64"/>
    <line x1="145" y1="-22" x2="273" y2="42"/>
  </g>
  <g clip-path="url(#plot2x2)" fill="#6a9f3f" stroke="#4f7a2e" stroke-width="1.2">
    <path d="M 70 50 q 4 -14 0 -20 q 6 6 2 20 z"/>
    <path d="M 105 68 q 4 -14 0 -20 q 6 6 2 20 z"/>
    <path d="M 138 46 q 4 -14 0 -20 q 6 6 2 20 z"/>
    <path d="M 172 64 q 4 -14 0 -20 q 6 6 2 20 z"/>
    <path d="M 120 96 q 4 -14 0 -20 q 6 6 2 20 z"/>
    <path d="M 195 78 q 4 -14 0 -20 q 6 6 2 20 z"/>
    <path d="M 88 88 q 4 -14 0 -20 q 6 6 2 20 z"/>
    <path d="M 215 58 q 4 -14 0 -20 q 6 6 2 20 z"/>
  </g>
  <g stroke="#3a2a18" stroke-width="4" stroke-linecap="round">
    <line x1="10" y1="74" x2="10" y2="50"/>
    <line x1="266" y1="74" x2="266" y2="50"/>
  </g>
</svg>
