<svg xmlns="http://www.w3.org/2000/svg" width="160" height="130" viewBox="0 0 160 130">
  <rect x="10" y="108" width="140" height="14" rx="2" fill="#3a382f" stroke="#17140f" stroke-width="2"/>
  <rect x="18" y="52" width="124" height="60" fill="#5c5a4c" stroke="#17140f" stroke-width="2.5"/>
  <g stroke="#3a3628" stroke-width="3">
    <line x1="18" y1="70" x2="142" y2="70"/>
    <line x1="18" y1="90" x2="142" y2="90"/>
    <line x1="45" y1="52" x2="45" y2="112"/>
    <line x1="115" y1="52" x2="115" y2="112"/>
  </g>
  <rect x="66" y="76" width="28" height="36" fill="#241f18" stroke="#17140f" stroke-width="2"/>
  <rect x="66" y="76" width="28" height="36" fill="none" stroke="#4a3d28" stroke-width="1" stroke-dasharray="4 3"/>
  <rect x="28" y="62" width="16" height="14" fill="#c98a3d" opacity="0.85" stroke="#17140f" stroke-width="1.5"/>
  <rect x="116" y="62" width="16" height="14" fill="#c98a3d" opacity="0.85" stroke="#17140f" stroke-width="1.5"/>
  <polygon points="80,4 150,54 10,54" fill="#3e3a30" stroke="#17140f" stroke-width="2.5"/>
  <g stroke="#332f28" stroke-width="2">
    <line x1="80" y1="4" x2="26" y2="47"/>
    <line x1="80" y1="4" x2="134" y2="47"/>
    <path d="M 34 40 L 126 40"/>
    <path d="M 44 30 L 116 30"/>
    <path d="M 54 20 L 106 20"/>
  </g>
  <rect x="102" y="10" width="12" height="22" fill="#55534a" stroke="#17140f" stroke-width="2"/>
  <path d="M 105 10 q 4 -8 -1 -14 q 6 4 3 14 z" fill="#8d8d86" opacity="0.5"/>
  <path d="M 108 6 q 5 -7 0 -13 q 6 5 2 13 z" fill="#8d8d86" opacity="0.35"/>
</svg>
